PathFileType	3	(X/Y/Z)	D:\minhoCalibration\240510\subject3_KPNP\preferred\preferred04.trc
DataRate	CameraRate	NumFrames	NumMarkers	Units	OrigDataRate	OrigDataStartFrame	OrigNumFrames
200.0	200.0	33	10	mm	200.0	80	111	
Frame#	Time	Left_Ankle_Outer1			Left_Ankle_Inner1			Left_Knee_Outer1			Left_Knee_Inner1			Left_Wrist1			Right_Wrist1			Right_Knee_Inner1			Right_Knee_Outer1			Right_Ankle_Inner1			Right_Ankle_Outer1			
		X1	Y1	Z1	X2	Y2	Z2	X3	Y3	Z3	X4	Y4	Z4	X5	Y5	Z5	X6	Y6	Z6	X7	Y7	Z7	X8	Y8	Z8	X9	Y9	Z9	X10	Y10	Z10	
80	0.39	-316.12091	84.015549	-554.5307	-371.1796	96.548203	-551.19727	-209.72787	487.22662	-390.27145	-313.46472	491.93564	-377.87112	-160.60126	882.5199	-527.19861	-516.96582	906.0545	-604.95551	-596.83167	456.43054	-601.98157	-662.60297	537.63678	-665.27289	-451.29648	235.87395	-930.39343	-527.05298	270.17355	-987.34839
81	0.395	-315.09479	85.194923	-554.52081	-370.43579	97.842163	-550.7309	-206.51288	487.74405	-390.85092	-309.85977	492.70181	-376.72571	-156.35025	885.12305	-526.36407	-515.73059	910.88159	-593.09351	-598.57019	461.7699	-580.87457	-665.64105	542.98047	-644.75122	-458.67395	249.23193	-919.72522	-536.50415	282.50107	-975.0174
82	0.4	-314.26337	86.329414	-554.18262	-369.58133	99.239822	-550.23126	-203.28082	488.42618	-391.82123	-306.436	493.41104	-375.93082	-151.54338	887.94073	-526.00018	-513.46429	916.64246	-581.8642	-598.9256	466.9144	-561.16302	-668.23267	548.29822	-624.13983	-465.76755	264.33899	-908.82159	-546.18732	296.07837	-961.25244
83	0.405	-313.44046	87.876038	-553.87054	-368.77344	100.93584	-549.56213	-199.99852	489.20605	-393.0249	-302.61493	494.55923	-375.20563	-147.39185	890.28784	-526.10126	-511.30533	922.30273	-569.86316	-598.15442	472.0705	-542.20471	-670.21619	553.47644	-601.91089	-472.83987	279.84256	-896.58423	-555.54956	310.96924	-946.60657
84	0.41	-313.22513	88.9655	-553.164	-367.97961	102.6137	-548.83398	-196.83411	490.15979	-394.58353	-298.41058	495.2182	-374.70062	-142.8784	892.69635	-526.82611	-508.33868	928.28363	-559.00519	-595.94049	477.34518	-522.4751	-672.43115	559.64105	-579.35052	-479.85931	295.89398	-883.38013	-564.51575	325.85468	-931.24591
85	0.415	-312.0177	90.886833	-553.00031	-367.18933	104.53744	-548.05713	-193.5764	491.35181	-396.30969	-294.57068	496.52417	-374.20923	-137.44577	895.21472	-528.67633	-504.80051	934.29535	-548.03204	-592.66901	483.07932	-502.6582	-674.11041	566.41394	-555.41138	-487.01602	312.39487	-869.2677	-572.58783	342.63208	-914.36249
86	0.42	-311.28693	92.718369	-552.48334	-366.41406	106.48695	-547.23151	-191.07794	492.50836	-398.36124	-290.95386	498.35687	-373.64233	-132.81203	897.40765	-530.4729	-501.06274	940.88226	-537.04492	-588.48267	489.20688	-482.52676	-675.41748	574.15417	-530.20361	-494.34335	329.07968	-854.23724	-581.22729	359.12863	-896.2702
87	0.425	-310.92761	94.50428	-551.60394	-365.69461	108.7071	-546.25018	-187.82562	494.16711	-400.12512	-286.98724	500.11069	-373.37378	-129.19872	899.15436	-532.59229	-496.56488	947.46149	-526.64191	-583.93433	495.94705	-462.86075	-675.76514	582.67706	-503.84457	-501.66888	345.70496	-838.146	-589.49084	376.58612	-878.15247
88	0.43	-309.99954	96.811363	-551.17181	-365.3873	110.92439	-544.67566	-184.56937	496.02319	-402.17163	-283.21558	502.08957	-373.21286	-124.62217	901.43872	-535.89471	-491.79822	954.48566	-516.57751	-579.24445	503.42227	-443.26184	-675.20807	591.9527	-476.50565	-509.16235	362.16428	-821.04462	-597.96991	394.95392	-857.52277
89	0.435	-309.80402	98.756844	-550.14374	-364.79544	113.40075	-543.47369	-182.08241	498.00534	-404.09949	-280.06757	504.34381	-373.06097	-121.22285	903.23712	-539.40411	-486.77582	961.15387	-507.11084	-574.39258	511.68192	-423.54126	-673.61658	601.82135	-448.66086	-517.01593	378.6116	-803.11292	-605.48621	413.44614	-838.13702
90	0.44	-308.95776	101.29032	-549.49225	-363.88678	115.8616	-542.62262	-179.30919	500.27435	-405.80649	-276.42392	507.18051	-373.09348	-117.79801	905.29602	-543.61853	-479.90842	968.45679	-498.61432	-569.70996	521.00916	-403.32193	-670.82416	612.79486	-420.88821	-524.96283	395.09448	-784.49524	-613.99982	432.34338	-816.24133
91	0.445	-308.517	103.72393	-548.56012	-363.44763	118.5301	-541.14539	-176.80554	502.72089	-407.7402	-272.8457	509.99521	-373.29144	-115.13456	907.14349	-548.34753	-474.19977	975.66748	-490.39093	-564.94037	531.3421	-381.91776	-666.987	625.22968	-393.59045	-533.68555	411.32559	-764.80048	-622.7981	451.36365	-793.40649
92	0.45	-308.15311	106.15712	-547.47815	-363.05438	121.22695	-539.45453	-174.06367	505.35904	-409.44998	-269.44452	512.97406	-373.4053	-112.01351	909.30389	-553.54254	-468.40158	982.78387	-483.04648	-559.97394	543.01709	-359.93008	-661.88843	638.60144	-366.73495	-541.23108	428.48102	-745.19537	-631.80945	470.78912	-769.53113
93	0.455	-307.93915	108.5975	-546.36517	-362.79169	123.92944	-537.54828	-171.53651	508.06171	-411.21832	-265.80133	516.2337	-373.66406	-109.29922	911.36298	-559.11597	-461.99539	989.66815	-476.59949	-555.10406	555.90961	-336.97565	-655.71527	652.85962	-340.91489	-550.31989	445.15451	-724.24402	-640.77454	489.62347	-744.87177
94	0.46	-308.08826	110.9575	-545.00409	-362.62088	126.76883	-535.71564	-168.71106	511.02435	-412.94318	-262.76395	519.94122	-373.45578	-107.01524	913.17059	-565.09326	-455.07526	997.35956	-470.55075	-549.57904	569.84479	-313.99963	-648.6283	668.30139	-315.77881	-559.96118	461.94608	-702.57373	-650.39008	509.03989	-719.17126
95	0.465	-307.67944	113.58125	-543.92944	-362.27573	129.50977	-533.52081	-165.72006	513.86548	-414.63745	-259.28561	523.78497	-373.61853	-105.07272	914.95068	-571.31061	-448.7345	1004.7714	-464.9823	-543.13892	585.10657	-290.00684	-640.62793	684.71368	-291.63547	-569.5321	478.98822	-680.38776	-659.73737	527.58868	-692.40552
96	0.47	-307.59326	116.06089	-542.75317	-362.15472	132.25015	-531.23853	-162.76369	516.6084	-416.24045	-255.53137	527.39136	-374.15872	-103.24066	916.5412	-577.92883	-442.93192	1011.8406	-459.85226	-535.46802	601.44971	-266.45618	-631.87512	702.10944	-268.05905	-580.01691	495.84659	-656.94476	-669.31366	546.75244	-664.83588
97	0.475	-307.19833	118.61484	-541.66437	-362.02585	134.87253	-529.00287	-159.45996	519.24084	-418.08136	-252.09586	531.04327	-373.92365	-102.0642	917.85547	-584.76495	-436.38089	1019.0712	-455.51938	-527.32422	618.4679	-243.15942	-622.15778	720.14557	-245.49158	-590.73145	512.68884	-632.86725	-678.41736	564.31458	-636.85559
98	0.48	-307.07559	120.80942	-540.48108	-361.88416	137.10271	-526.56055	-156.28867	521.61658	-419.89111	-247.41231	534.45911	-374.55014	-100.70659	919.34131	-592.11633	-429.9082	1025.8564	-451.87051	-518.53625	636.28369	-220.50095	-611.0918	738.87683	-223.82103	-600.84644	529.53278	-608.3241	-688.32556	582.95184	-607.92236
99	0.485	-307.43887	122.81959	-539.24133	-361.74963	139.4536	-524.33264	-152.75771	523.5672	-422.05032	-243.66226	537.3111	-374.21671	-100.08421	920.29181	-599.25861	-423.53574	1032.8958	-448.5965	-508.44806	654.61884	-198.80272	-599.07831	758.81116	-202.39871	-611.8407	546.01508	-582.22162	-697.75201	601.53973	-577.34833
100	0.49	-307.26932	124.63183	-538.31647	-361.69772	141.69423	-522.18353	-149.42473	525.38208	-424.34216	-239.39151	539.71393	-374.29999	-99.972832	921.06726	-606.51447	-417.56335	1039.4135	-446.08267	-497.33139	673.74384	-178.30472	-586.22583	779.06665	-181.77504	-622.45831	562.21283	-555.71289	-706.54327	619.46344	-548.34448
101	0.495	-307.79852	126.21352	-537.02325	-361.07318	143.1629	-519.57184	-146.17583	526.42896	-427.05255	-234.03836	541.38971	-374.22791	-100.16825	921.5874	-613.80017	-411.80975	1046.1677	-443.66357	-485.45789	693.61823	-159.1879	-571.67377	800.58197	-162.37256	-633.11163	578.17267	-528.19012	-715.2854	638.48279	-517.48376
102	0.5	-307.78714	127.71725	-536.10083	-360.92294	145.0798	-517.88049	-143.06874	527.19012	-430.12161	-229.38525	542.48279	-373.93094	-100.74899	922.12189	-621.06476	-406.09308	1052.562	-441.93155	-472.75311	713.69849	-141.27444	-556.31689	822.5061	-144.34151	-643.60236	593.8114	-499.55359	-723.64288	655.66724	-484.6413
103	0.505	-307.66864	128.97911	-535.27991	-360.59143	146.64771	-515.95789	-140.43361	527.58484	-433.13428	-224.20647	542.70807	-374.83173	-101.7589	922.39374	-628.21411	-400.79935	1058.7487	-440.40491	-458.0834	734.69141	-124.99299	-539.53497	844.92737	-127.305	-654.09528	609.14417	-469.60544	-732.32715	675.33087	-450.62482
104	0.51	-307.71298	129.99213	-534.24542	-360.20963	147.89952	-514.13049	-137.94344	527.70618	-436.40326	-218.71753	543.6283	-373.56656	-103.07055	922.48004	-635.31403	-395.1698	1064.4946	-439.82474	-444.427	754.9104	-109.76598	-521.26599	867.45544	-112.49142	-664.05853	624.15533	-438.37885	-737.8866	692.8244	-418.91806
105	0.515	-307.82861	130.62402	-533.57318	-359.91818	148.95248	-512.67242	-135.65529	527.62823	-439.56366	-213.54022	543.48193	-373.30899	-104.85081	922.45148	-642.16852	-390.38916	1069.8018	-439.18149	-429.73853	775.62085	-96.088905	-501.83755	890.13464	-99.843102	-674.13916	638.73901	-405.73749	-745.13013	710.6615	-383.00122
106	0.52	-307.71979	131.39154	-533.02411	-359.67554	149.71742	-511.53088	-133.77611	527.45337	-442.4834	-208.97249	543.02734	-373.53943	-107.19537	922.06714	-648.61011	-385.84082	1075.4435	-438.74023	-414.81924	796.5672	-83.960457	-482.16779	912.35443	-88.407402	-683.13483	653.63513	-370.42593	-750.66016	726.95819	-347.98087
107	0.525	-307.48727	131.89641	-532.82599	-359.38367	150.28539	-510.64127	-132.04163	527.229	-445.1438	-204.48102	543.01678	-372.81656	-109.67041	921.45453	-654.87738	-381.54272	1080.4791	-438.75296	-399.88779	817.53894	-73.72892	-461.39774	934.33661	-79.40741	-691.41058	668.60028	-334.75327	-754.99164	746.12708	-310.32782
108	0.53	-307.67947	132.06612	-532.38165	-359.25803	150.66914	-509.82755	-130.80779	526.7832	-447.38733	-200.84709	542.69714	-374.19525	-112.56348	920.62555	-660.6402	-377.3223	1085.1864	-439.24805	-384.7001	838.37396	-64.91066	-440.54843	955.42261	-73.055252	-698.75214	683.9823	-296.96124	-758.04321	764.20215	-272.07083
109	0.535	-307.53021	132.2309	-532.37402	-358.96591	150.7372	-509.37717	-129.98482	526.13904	-449.39886	-198.037	543.00275	-373.50964	-115.82256	919.48724	-666.09357	-373.42355	1089.4146	-439.80786	-369.38556	858.88184	-57.496624	-420.09668	975.44824	-68.237617	-704.77051	699.43616	-257.75635	-759.54108	782.81781	-232.77559
110	0.54	-308.27548	131.32072	-532.38922	-358.89218	150.66957	-509.13239	-129.06129	525.65204	-450.91968	-196.03299	542.57269	-373.52121	-119.91035	917.82684	-670.50085	-369.78574	1093.3547	-440.48245	-354.14795	878.9964	-51.874699	-399.42419	994.6084	-66.41584	-709.60065	715.45953	-214.06778	-759.5849	802.57257	-192.02296
111	0.545	-308.45782	131.04521	-532.31903	-359.12268	150.27768	-509.19937	-128.55502	525.09338	-452.10236	-195.05829	542.38513	-373.94562	-124.09496	915.68329	-674.87286	-366.05087	1096.9749	-441.38132	-339.46219	898.31152	-47.54845	-380.23621	1013.3917	-65.85495	-711.40424	732.64917	-168.95639	-757.21094	822.63953	-150.05815
112	0.55	-308.73138	130.52336	-532.53369	-359.11276	149.55974	-509.07178	-128.15634	524.31793	-452.89639	-194.35596	541.9906	-373.79257	-128.28099	913.37457	-678.91638	-362.3558	1100.2415	-441.97653	-324.88193	917.28424	-45.308846	-361.73859	1030.2236	-67.979088	-710.40942	751.61395	-122.00101	-752.5694	844.07611	-106.98003
